#N canvas 275 68 450 300 10;
#X obj 215 261 print;
#X floatatom 215 14 5 0 0 0 - - -, f 5;
#N canvas 791 50 450 300 factorielle 1;
#X obj 186 10 inlet;
#X obj 179 266 outlet;
#X obj 191 56 int;
#X text 16 54 compteur;
#X obj 74 54 0;
#X text 289 58 resultat;
#X text 175 56 n;
#X obj 348 57 1;
#X obj 191 86 + 1;
#X obj 153 140 moses;
#X text 207 132 if compteur < n : left;
#X text 208 147 else : right;
#X connect 0 0 2 0;
#X connect 2 0 8 0;
#X connect 4 0 9 0;
#X connect 8 0 9 1;
#X restore 197 133 pd factorielle;
#X connect 1 0 2 0;
#X connect 2 0 0 0;
